<?xml version="1.0" standalone="no"?>
<!DOCTYPE svg PUBLIC "-//W3C//DTD SVG 20010904//EN"
 "http://www.w3.org/TR/2001/REC-SVG-20010904/DTD/svg10.dtd">
<svg version="1.0" xmlns="http://www.w3.org/2000/svg"
 width="994.000000pt" height="1280.000000pt" viewBox="0 0 994.000000 1280.000000"
 preserveAspectRatio="xMidYMid meet">
<metadata>
Created by potrace 1.15, written by Peter Selinger 2001-2017
</metadata>
<g transform="translate(0.000000,1280.000000) scale(0.100000,-0.100000)"
fill="#000000" stroke="none">
<path d="M1245 12689 c-11 -4 -37 -8 -57 -8 -47 -1 -101 -46 -126 -104 -18
-41 -18 -41 11 -121 15 -45 34 -90 42 -102 13 -20 12 -21 -28 -19 -23 1 -103
11 -177 21 -151 21 -269 21 -361 0 -49 -12 -69 -23 -96 -53 -29 -31 -33 -41
-23 -56 6 -10 8 -27 5 -37 -4 -13 1 -22 15 -30 11 -6 20 -17 20 -24 0 -7 11
-23 25 -36 14 -13 25 -27 25 -30 0 -16 77 -90 103 -99 16 -6 58 -11 93 -11
l65 0 -27 -23 c-38 -33 -29 -58 60 -152 44 -47 88 -106 106 -141 37 -77 50
-87 103 -86 90 1 212 71 281 162 61 80 79 133 80 237 1 78 3 89 16 80 8 -7 5
3 -8 26 -25 44 -9 51 25 10 l23 -28 -16 32 c-8 18 -13 42 -9 53 5 15 0 23 -17
30 -19 9 -16 10 17 5 146 -18 416 -26 538 -15 250 21 452 84 488 151 21 39 -6
52 -156 79 -38 6 -135 33 -215 58 -146 47 -239 59 -296 38 -19 -7 -20 -4 -16
22 7 53 -21 68 -233 127 -27 7 -70 19 -95 26 -25 7 -57 12 -72 11 -15 -2 -42
1 -60 6 -18 5 -42 5 -53 1z m36 -439 c31 -26 15 -26 -18 0 -14 11 -21 20 -15
20 5 0 20 -9 33 -20z"/>
<path d="M5560 12658 c-14 -5 -34 -7 -44 -4 -11 3 -35 -4 -53 -15 -50 -31
-169 -171 -183 -215 -7 -22 -29 -79 -50 -129 -21 -49 -41 -104 -44 -121 -6
-26 -11 -30 -30 -27 -13 3 -29 17 -36 31 -6 15 -42 74 -78 131 -119 185 -239
294 -328 295 -39 1 -48 -3 -57 -21 -5 -12 -18 -24 -28 -26 -13 -4 -19 -14 -19
-35 0 -17 -4 -33 -9 -36 -4 -3 -11 -29 -15 -58 -4 -29 -12 -67 -18 -85 -10
-26 -8 -39 7 -72 10 -23 24 -46 32 -53 8 -6 23 -24 34 -40 l21 -29 -25 6 c-58
15 -83 -23 -92 -140 -6 -65 -20 -117 -48 -177 -15 -31 -27 -66 -27 -77 0 -53
119 -131 235 -152 65 -12 171 -6 226 13 54 18 137 75 190 129 50 51 54 51 62
-1 4 -24 4 -24 6 3 0 17 7 27 16 27 9 0 16 -10 16 -27 2 -27 2 -27 6 -3 8 51
12 54 35 34 l21 -19 -19 30 -19 29 45 -28 c56 -35 132 -70 213 -98 94 -33 267
-37 378 -9 124 31 229 101 244 163 6 23 -2 35 -62 96 -65 66 -95 108 -118 162
-13 31 -43 78 -69 108 -21 24 -58 28 -102 12 l-27 -11 19 28 c55 83 64 120 39
163 -8 14 -20 36 -27 50 -7 14 -21 31 -30 38 -10 7 -18 19 -18 26 0 7 -11 23
-25 36 -14 13 -25 32 -25 42 0 11 -7 18 -19 18 -11 0 -32 11 -48 24 -22 19
-33 22 -53 14z"/>
<path d="M3458 12607 c-30 -24 -75 -49 -99 -56 -139 -42 -169 -65 -169 -134
l0 -49 -40 51 c-45 57 -76 70 -117 48 -15 -8 -46 -23 -68 -33 -22 -10 -47 -24
-55 -31 -8 -6 -26 -13 -40 -15 -15 -2 -26 -11 -28 -23 -2 -11 -15 -29 -28 -40
-22 -18 -25 -29 -27 -95 -2 -72 0 -79 47 -172 45 -90 56 -103 154 -190 58 -51
122 -103 141 -115 l36 -21 -30 -4 c-42 -4 -38 -30 5 -42 19 -5 37 -11 39 -13
9 -7 -34 -43 -53 -44 -18 -1 -19 -2 -3 -6 12 -3 30 6 48 23 25 24 33 26 57 18
19 -7 27 -16 26 -33 -1 -21 0 -21 23 6 l24 28 -4 -32 c-2 -18 0 -30 5 -27 4 3
8 12 8 20 0 24 38 15 77 -18 31 -27 34 -29 20 -8 -24 34 -21 47 5 24 l22 -19
-16 25 c-8 14 -21 26 -27 26 -32 4 -33 7 -6 13 39 8 48 41 11 41 -14 0 -26 3
-26 8 0 4 41 31 92 61 292 171 568 432 660 626 31 66 36 103 14 111 -7 3 -56
-13 -107 -34 -52 -22 -119 -45 -149 -52 -140 -30 -184 -45 -227 -77 l-33 -24
0 73 c0 82 -28 198 -55 228 -26 29 -45 25 -107 -23z m-163 -868 c11 -16 0 -21
-31 -13 -25 6 -26 8 -9 15 28 11 33 10 40 -2z"/>
<path d="M8030 12465 c0 -22 119 -116 255 -203 138 -88 406 -226 578 -297 113
-47 140 -65 97 -65 -11 0 -20 -7 -20 -15 0 -8 4 -15 8 -15 5 0 17 -7 28 -16
19 -15 19 -15 -2 -11 -17 4 -25 -3 -38 -32 l-16 -36 25 28 c23 26 29 27 26 2
-1 -5 5 -2 13 8 17 22 63 14 69 -11 4 -16 5 -16 6 0 0 9 -3 19 -9 23 -11 7 -2
35 12 35 6 0 5 -6 -2 -15 -17 -20 0 -19 29 2 23 16 25 15 50 -16 14 -17 32
-31 39 -31 7 0 -2 13 -20 29 -32 28 -32 28 -10 40 26 14 29 41 5 41 -29 0 -9
10 149 74 169 68 332 158 391 215 47 45 68 83 53 98 -6 6 -18 20 -26 32 -18
27 -27 26 -97 -4 l-58 -26 28 26 c34 32 34 39 -3 65 -16 12 -34 36 -38 53 -11
42 -27 39 -122 -23 -97 -64 -230 -179 -296 -257 l-52 -61 -29 30 c-56 60 -187
132 -303 167 -66 19 -190 51 -201 51 -7 0 -9 -10 -6 -25 4 -25 4 -25 -22 -8
-37 24 -93 51 -122 57 -120 27 -203 48 -240 62 -105 39 -129 44 -129 29z
m1043 -552 c-7 -2 -19 -2 -25 0 -7 3 -2 5 12 5 14 0 19 -2 13 -5z"/>
<path d="M7351 12409 c-39 -16 -110 -78 -147 -129 l-34 -47 -42 9 c-124 26
-158 20 -158 -25 0 -20 -1 -19 -27 5 -46 42 -83 56 -259 92 -93 19 -213 48
-267 65 -150 45 -165 26 -59 -78 129 -128 391 -275 712 -402 110 -43 155 -65
139 -67 -13 -2 -28 -7 -32 -11 -12 -11 23 -43 39 -37 7 3 16 1 19 -4 4 -6 -7
-10 -24 -10 -19 0 -34 -7 -40 -19 -9 -15 -7 -18 12 -16 12 1 22 4 22 5 0 1 11
4 25 5 14 1 33 6 43 10 16 7 17 4 12 -21 l-7 -29 14 25 c17 31 45 28 73 -6 28
-32 42 -31 16 2 -40 51 11 62 66 14 18 -16 41 -30 51 -30 9 0 2 8 -17 18 -51
25 -49 38 7 46 27 3 52 9 55 13 11 10 -14 33 -37 34 -11 0 8 9 44 18 158 43
339 107 397 140 109 63 153 98 153 124 0 13 5 28 11 34 8 8 5 14 -10 22 -12 7
-21 18 -21 26 0 8 -5 15 -11 15 -6 0 -27 7 -47 16 -66 29 -76 33 -126 49 -45
14 -53 14 -100 -1 -28 -9 -64 -23 -80 -32 l-30 -15 18 28 c18 28 18 29 -1 45
-19 15 -47 25 -148 53 -22 6 -63 26 -91 44 -53 34 -73 38 -113 22z m17 -576
c-10 -2 -28 -2 -40 0 -13 2 -5 4 17 4 22 1 32 -1 23 -4z"/>
<path d="M2501 11890 c-53 -123 -119 -578 -122 -836 -1 -116 -11 -122 -54 -29
-62 135 -175 356 -218 425 -129 206 -262 350 -324 350 -33 0 -30 -19 21 -162
24 -68 50 -150 59 -183 63 -240 82 -292 123 -330 l25 -23 -26 -26 c-14 -14
-25 -29 -25 -34 0 -10 42 -165 64 -237 8 -27 20 -70 27 -95 10 -40 42 -117 73
-176 27 -51 73 -104 100 -114 16 -5 45 -7 63 -4 31 6 37 14 69 84 35 75 36 77
61 66 13 -6 36 -32 49 -58 25 -50 46 -59 77 -35 9 7 23 45 33 92 14 67 16 121
11 329 -5 232 -7 251 -26 277 -19 25 -20 34 -11 71 15 58 0 690 -16 695 -6 2
-21 -19 -33 -47z"/>
<path d="M7194 11719 c-19 -22 -19 -22 3 -10 24 12 39 31 25 31 -5 0 -17 -10
-28 -21z"/>
<path d="M5039 11401 c-82 -51 -164 -192 -209 -356 -32 -117 -39 -405 -12
-558 13 -78 15 -106 6 -103 -6 2 -15 1 -20 -4 -5 -4 -80 27 -167 70 -253 126
-426 188 -588 210 -124 17 -198 -12 -153 -61 10 -11 65 -50 123 -86 110 -69
137 -88 199 -139 53 -44 161 -118 202 -139 19 -10 50 -18 67 -17 30 1 33 -1
33 -28 0 -16 5 -39 11 -52 9 -21 89 -86 184 -150 22 -15 65 -45 95 -66 62 -45
181 -107 223 -116 15 -3 38 -9 52 -12 28 -7 65 18 65 43 0 7 5 21 11 31 9 14
8 26 -6 52 -27 53 -55 139 -49 155 3 7 0 23 -6 36 -11 20 -11 21 11 14 24 -7
74 -16 234 -40 87 -14 93 -13 158 10 123 43 177 84 177 135 0 12 8 35 17 50
14 24 15 34 5 55 -7 14 -12 45 -12 69 0 30 -6 48 -20 61 -11 10 -22 33 -26 51
-3 18 -12 38 -20 44 -7 7 -18 28 -25 48 -7 20 -20 48 -30 61 -11 13 -19 29
-19 35 0 6 -14 27 -31 45 -30 33 -31 34 -104 29 l-74 -5 20 28 c37 52 36 90
-6 171 -20 40 -45 82 -55 93 -11 11 -26 37 -34 57 -9 20 -20 39 -24 42 -9 5
-45 104 -73 194 -13 44 -40 72 -69 72 -9 0 -36 -13 -61 -29z m-84 -1131 c10
-11 14 -20 8 -20 -5 0 -18 9 -28 20 -10 11 -14 20 -8 20 5 0 18 -9 28 -20z"/>
<path d="M9552 11156 c-199 -108 -471 -378 -647 -643 -26 -40 -50 -73 -52 -73
-3 0 -89 85 -191 189 -193 195 -355 333 -502 431 -128 83 -188 103 -144 47 68
-86 135 -180 164 -231 19 -32 59 -80 88 -105 51 -47 52 -47 21 -43 -30 4 -31
4 -19 -19 38 -71 125 -184 200 -258 69 -69 101 -92 170 -125 58 -27 97 -39
123 -38 36 1 38 -1 33 -23 -3 -13 -9 -31 -13 -41 -4 -11 -3 -15 5 -10 6 4 14
22 18 41 7 40 32 47 52 15 17 -28 42 -26 42 5 0 35 14 31 28 -9 7 -19 20 -40
29 -48 15 -12 15 -11 1 12 -9 14 -19 36 -23 49 l-7 24 78 -5 c87 -6 132 6 239
60 57 28 122 89 170 158 29 43 96 223 87 238 -2 4 -22 6 -42 3 l-38 -5 43 42
c40 39 56 72 86 176 7 25 30 80 51 123 35 71 40 97 20 97 -4 0 -35 -16 -70
-34z"/>
<path d="M6501 11128 c-4 -13 -16 -50 -27 -83 -19 -64 -45 -114 -80 -157 -12
-15 -32 -47 -44 -73 -24 -50 -22 -80 11 -127 24 -33 23 -33 -24 -13 -70 29
-137 11 -137 -37 0 -9 -7 -21 -15 -28 -8 -7 -15 -18 -15 -25 0 -7 -9 -24 -20
-38 -11 -14 -20 -32 -20 -40 0 -8 -9 -25 -19 -38 -13 -17 -17 -33 -14 -56 3
-19 0 -39 -7 -48 -10 -12 -8 -21 9 -48 12 -19 21 -44 21 -55 0 -27 74 -91 158
-135 55 -29 85 -38 172 -48 58 -6 132 -11 164 -11 l59 1 -27 -28 c-24 -25 -25
-29 -10 -35 11 -4 14 -13 11 -27 -5 -20 -2 -20 59 -17 35 2 64 0 64 -4 0 -5 9
1 20 12 11 11 26 20 33 20 22 0 153 67 307 158 162 95 183 110 176 129 -3 8 5
15 22 19 40 10 127 55 233 122 52 32 141 85 199 116 58 32 112 65 120 73 13
13 10 14 -30 8 -113 -18 -417 -140 -730 -292 -118 -58 -225 -107 -237 -109
-22 -4 -23 -2 -17 58 3 35 7 72 9 82 9 42 -16 282 -35 354 -12 42 -46 129 -77
192 -46 94 -67 126 -123 182 -55 55 -74 68 -99 68 -24 0 -34 -6 -40 -22z m289
-968 c0 -5 -9 -14 -20 -20 -22 -12 -27 -1 -8 18 14 14 28 16 28 2z"/>
<path d="M1410 10867 c-16 -8 -39 -41 -65 -93 -23 -47 -72 -119 -115 -170 -93
-110 -109 -144 -86 -179 9 -14 21 -25 26 -25 6 0 10 -4 10 -10 0 -5 -7 -7 -15
-4 -9 4 -45 3 -82 -1 -79 -8 -91 -18 -188 -155 -13 -19 -29 -44 -34 -55 -5
-11 -20 -30 -34 -43 -16 -15 -23 -30 -20 -43 3 -11 0 -32 -8 -45 -10 -20 -11
-29 -1 -42 7 -9 15 -24 18 -32 14 -38 24 -46 73 -63 29 -9 85 -22 124 -27 75
-11 178 2 380 49 72 17 77 17 62 1 -18 -19 -19 -37 -4 -42 11 -4 -19 -127 -47
-194 -13 -30 -13 -41 0 -85 27 -88 55 -128 100 -140 23 -6 53 -16 69 -21 19
-8 40 -7 72 2 24 7 55 10 67 7 15 -4 35 1 53 13 17 11 38 20 48 20 11 0 33 7
50 15 30 13 58 24 162 61 23 8 54 26 70 38 26 21 29 29 29 79 l-1 55 31 -19
c56 -34 132 -19 291 56 107 50 143 63 238 85 98 23 147 48 147 76 0 23 -65 88
-117 116 -71 39 -187 75 -294 93 -116 18 -365 19 -509 1 -77 -10 -110 -11
-125 -3 -11 6 -26 10 -32 9 -16 -4 -16 7 2 93 22 103 20 258 -5 338 -22 72
-85 172 -132 212 -38 32 -113 70 -153 79 -17 3 -41 1 -55 -7z m220 -807 c-33
-26 -52 -25 -21 0 13 11 28 20 35 20 6 0 0 -9 -14 -20z"/>
<path d="M3545 10228 c-15 -12 -43 -44 -62 -72 -68 -101 -145 -190 -197 -226
-42 -29 -145 -149 -152 -176 -4 -15 -2 -41 4 -58 7 -16 10 -31 8 -33 -2 -2
-24 1 -50 8 -76 19 -109 6 -184 -70 -136 -136 -222 -235 -222 -252 0 -9 -10
-30 -23 -46 -19 -23 -23 -39 -22 -90 1 -51 5 -67 25 -88 35 -37 161 -95 207
-95 l38 0 -58 -55 c-31 -30 -57 -60 -57 -66 0 -24 102 1 233 56 72 31 138 59
145 62 6 3 12 -2 12 -11 0 -9 8 -16 18 -16 28 0 142 58 199 101 50 37 73 48
73 32 -1 -5 -18 -20 -39 -35 -26 -17 -43 -39 -51 -65 -7 -21 -19 -49 -27 -63
-14 -23 -14 -24 1 -9 9 8 25 37 35 64 14 38 27 54 55 68 20 11 36 26 36 34 0
17 46 10 93 -13 15 -8 27 -12 27 -9 0 4 -21 16 -47 28 -38 17 -44 22 -26 25
12 2 27 10 33 18 7 8 27 14 44 15 26 0 28 2 11 8 -11 5 -24 6 -30 3 -7 -3 -7
-1 0 6 6 5 19 12 30 15 19 4 18 5 -2 6 -13 1 -24 10 -29 23 -5 17 0 27 22 46
206 173 316 282 360 357 63 107 -25 97 -171 -20 -98 -78 -119 -91 -112 -70 97
302 85 542 -34 650 -45 40 -75 44 -114 13z m35 -1033 c0 -2 -9 -9 -20 -15 -16
-9 -18 -8 -14 5 5 13 34 22 34 10z"/>
<path d="M643 9818 c-12 -13 -26 -43 -33 -68 -37 -147 -85 -271 -122 -319 -10
-13 -18 -28 -18 -33 0 -5 -12 -34 -26 -63 -41 -88 -42 -118 -6 -169 l32 -44
-76 -4 c-73 -3 -78 -5 -105 -37 -15 -19 -31 -47 -34 -62 -4 -15 -14 -38 -24
-51 -10 -13 -21 -39 -25 -59 -4 -21 -13 -42 -21 -49 -8 -7 -15 -24 -15 -39 0
-14 -11 -43 -25 -64 -19 -27 -23 -42 -16 -55 6 -11 5 -34 -2 -65 -9 -40 -8
-50 6 -65 9 -10 20 -32 23 -50 8 -40 26 -56 97 -82 88 -33 198 -32 317 3 99
28 162 49 193 62 15 6 18 4 15 -11 -2 -14 3 -19 18 -18 21 0 21 -2 9 -35 -7
-20 -15 -63 -19 -96 -4 -33 -14 -98 -23 -145 -15 -82 -15 -87 6 -155 12 -38
33 -92 49 -120 24 -44 33 -51 73 -61 25 -7 56 -17 67 -23 17 -9 28 -8 53 5 18
9 45 14 63 11 24 -3 38 2 64 24 18 16 41 29 52 29 10 0 22 5 26 11 3 6 30 22
59 35 29 12 56 28 60 34 3 5 21 17 38 24 18 8 45 25 62 39 29 24 30 28 29 106
0 82 1 85 38 53 31 -26 92 -17 172 27 40 23 79 48 87 57 7 8 31 25 53 36 23
11 48 26 56 33 14 12 75 37 192 79 49 18 88 56 88 85 0 26 -52 102 -97 143
-52 46 -166 101 -269 130 -69 19 -104 22 -274 22 -182 0 -276 -10 -382 -40
-22 -6 -23 9 -3 30 22 21 18 32 -4 12 -24 -22 -37 -5 -20 26 l12 23 -25 -22
c-13 -13 -26 -23 -29 -23 -2 0 -4 102 -4 227 0 187 -3 242 -19 307 -49 213
-149 377 -271 447 -60 35 -95 37 -122 7z"/>
<path d="M5315 9600 c-68 -38 -114 -55 -220 -79 -65 -15 -95 -38 -120 -89 -11
-23 -23 -41 -26 -42 -4 0 -9 16 -12 36 -3 20 -11 42 -18 50 -14 17 -52 18 -81
3 -19 -10 -25 -7 -51 25 -35 44 -53 45 -98 5 -40 -35 -79 -55 -130 -63 -63
-11 -80 -46 -53 -111 4 -11 -15 4 -43 33 -51 51 -92 67 -108 42 -4 -6 -11 -8
-16 -5 -5 4 -16 -1 -25 -9 -8 -9 -22 -16 -30 -16 -8 0 -14 -4 -14 -10 0 -5 -9
-10 -20 -10 -13 0 -20 -7 -20 -19 0 -11 -5 -23 -10 -26 -7 -4 -8 -26 -4 -58 7
-57 46 -126 122 -219 47 -56 205 -193 272 -236 30 -18 32 -22 13 -22 -12 0
-24 -4 -28 -9 -7 -12 19 -38 46 -46 28 -9 19 -26 -27 -52 -21 -13 -31 -23 -22
-23 9 0 30 11 46 25 36 30 52 31 79 6 16 -15 23 -17 33 -8 9 9 10 3 6 -28 -6
-40 -6 -40 5 -7 8 28 13 32 32 27 12 -4 29 -15 38 -25 16 -18 43 -30 47 -20 1
3 -1 15 -4 28 -5 16 -14 22 -36 22 -17 0 -27 4 -23 10 4 6 10 8 15 5 12 -7 50
12 50 26 0 5 -12 14 -27 20 l-28 11 21 16 c12 9 56 44 99 76 255 198 475 545
475 749 0 32 -5 47 -16 51 -19 7 -7 12 -89 -34z m-559 -836 c17 -14 17 -15 1
-10 -10 3 -25 6 -33 6 -9 0 -12 5 -9 10 9 14 18 13 41 -6z m-16 -64 c13 -8 13
-10 -2 -10 -9 0 -20 5 -23 10 -8 13 5 13 25 0z m128 -60 c7 -11 11 -20 9 -20
-2 0 -12 9 -22 20 -10 11 -14 20 -9 20 5 0 15 -9 22 -20z"/>
<path d="M6855 9540 c-40 -16 -48 -36 -42 -105 3 -35 15 -82 26 -104 l20 -39
-24 -6 c-14 -4 -25 -13 -25 -22 0 -12 -7 -14 -32 -8 -58 12 -295 6 -384 -11
-211 -39 -402 -152 -475 -280 -49 -86 -35 -132 46 -150 93 -21 246 -83 260
-106 11 -17 149 -79 176 -79 24 0 74 30 91 55 4 5 8 -24 8 -65 0 -48 5 -83 14
-96 8 -11 45 -34 83 -52 37 -18 85 -42 105 -53 20 -10 43 -19 51 -19 8 0 30
-10 48 -23 25 -17 45 -22 71 -19 20 2 44 0 54 -6 16 -9 35 -2 134 48 34 17 98
218 88 276 -3 16 -15 84 -27 151 -12 68 -24 130 -28 139 -4 12 -3 15 5 10 21
-13 33 3 20 27 -11 21 -9 20 23 -4 19 -14 68 -50 109 -79 41 -29 98 -70 125
-91 49 -36 167 -99 213 -114 13 -4 29 -2 37 5 12 10 12 15 -1 35 -9 13 -15 27
-15 30 2 8 -12 28 -151 208 -15 20 -57 55 -94 78 -36 24 -61 45 -55 47 22 7
10 29 -69 125 -43 54 -95 125 -115 157 -44 73 -79 102 -150 129 -59 22 -87 25
-120 11z"/>
<path d="M8910 9220 c-71 -5 -116 -18 -270 -74 -347 -128 -598 -251 -702 -344
-47 -43 -61 -72 -35 -72 8 0 63 14 123 31 60 17 172 44 249 60 164 34 230 54
266 80 32 23 39 24 39 5 0 -20 25 -26 73 -17 l42 7 0 -100 c1 -163 52 -295
146 -380 53 -49 76 -46 140 14 48 44 141 100 167 100 5 0 31 12 57 26 59 34
73 60 51 102 -9 17 -16 33 -16 36 0 2 23 -11 50 -29 71 -48 107 -53 167 -24
26 13 54 30 61 37 7 6 19 12 26 12 7 0 21 9 30 19 10 11 28 21 39 23 12 2 23
12 25 23 2 11 10 27 18 36 24 26 7 115 -30 157 -35 41 -172 152 -187 152 -9 0
-249 103 -281 120 -19 11 -112 11 -248 0z"/>
<path d="M5193 8228 c-74 -91 -180 -481 -244 -891 -6 -43 -16 -76 -21 -75 -5
2 -28 62 -52 133 -121 360 -272 667 -373 755 -58 51 -62 30 -25 -118 17 -70
37 -156 43 -192 26 -148 52 -253 75 -296 28 -53 28 -54 10 -54 -31 0 -30 -44
4 -195 4 -22 14 -67 20 -100 30 -148 95 -303 142 -337 13 -9 37 -19 53 -22 26
-5 33 -1 57 33 22 33 31 38 59 37 25 -1 39 -9 54 -33 20 -29 23 -30 48 -16 59
30 98 185 117 463 13 190 13 196 -5 214 -14 14 -14 20 0 62 9 27 20 113 26
208 5 88 17 219 25 290 15 124 11 164 -13 134z"/>
<path d="M3638 8003 c-134 -139 -212 -209 -258 -233 -14 -7 -34 -21 -45 -31
-11 -10 -35 -30 -54 -46 -43 -35 -71 -95 -64 -140 l6 -33 -44 25 c-24 13 -57
25 -72 25 -29 0 -76 -25 -90 -47 -4 -7 -20 -20 -35 -28 -15 -8 -58 -44 -97
-80 -38 -36 -78 -68 -87 -71 -9 -3 -22 -20 -28 -38 -6 -18 -22 -44 -35 -56
-16 -15 -25 -35 -25 -54 0 -16 -5 -45 -12 -63 -11 -29 -10 -39 7 -71 25 -46
111 -131 148 -144 18 -7 27 -17 27 -32 0 -47 26 -56 137 -48 94 7 101 6 92
-10 -5 -9 -5 -19 0 -22 13 -9 120 22 190 54 71 33 71 34 71 21 0 -5 -12 -14
-27 -20 -16 -6 -37 -26 -49 -44 -11 -17 -29 -44 -38 -59 -36 -55 -6 -27 34 32
22 33 47 60 55 60 8 0 23 9 33 20 19 20 19 20 63 -10 l44 -31 -40 37 c-22 20
-33 35 -24 32 8 -3 26 0 40 7 13 8 38 11 54 9 21 -3 25 -2 11 4 -12 5 -19 21
-21 48 l-3 40 111 79 c300 214 500 404 509 485 5 47 -34 36 -165 -43 -114 -70
-239 -138 -244 -134 -1 1 11 39 27 84 41 116 60 218 60 325 0 105 -10 150 -43
199 -34 50 -72 51 -119 2z m-158 -1073 c0 -5 -2 -10 -4 -10 -2 0 -12 -3 -22
-7 -16 -6 -17 -5 -4 10 17 19 30 22 30 7z"/>
<path d="M6852 7808 c-9 -9 -45 -19 -127 -35 -16 -3 -39 -12 -50 -19 -11 -8
-28 -14 -38 -14 -48 0 -86 -55 -102 -150 l-7 -44 -19 37 c-12 22 -29 39 -44
43 -24 6 -105 -16 -156 -42 -50 -26 -115 -43 -204 -53 -117 -14 -129 -26 -122
-124 13 -190 193 -377 423 -442 56 -15 63 -20 68 -47 l6 -31 62 6 c34 3 56 2
49 -3 -11 -6 -11 -8 0 -12 11 -4 9 -13 -9 -39 l-23 -34 28 31 c36 40 62 35 33
-6 -28 -39 -25 -51 3 -14 24 32 64 74 71 74 3 0 7 -15 9 -32 3 -29 4 -27 5 10
2 34 6 42 21 42 10 0 24 7 31 16 23 27 46 34 80 24 21 -6 39 -6 49 1 14 8 13
9 -4 7 -11 -1 -33 1 -48 5 -21 6 -38 2 -64 -13 -56 -33 -50 -16 9 28 77 57
143 131 129 145 -8 8 31 53 144 166 219 221 299 326 233 305 -33 -10 -217
-131 -256 -167 l-33 -32 17 40 c12 29 17 72 18 160 l1 120 -43 43 c-32 32 -48
41 -63 37 -11 -4 -30 0 -43 9 -16 10 -26 12 -34 4z"/>
<path d="M9290 7773 c-8 -3 -37 -16 -65 -28 -91 -41 -210 -75 -264 -75 -47 0
-193 -40 -223 -61 -17 -13 -32 -37 -40 -66 l-13 -46 -27 40 c-37 57 -88 87
-136 80 -95 -15 -139 -24 -159 -35 -12 -7 -34 -12 -50 -12 -15 -1 -39 -7 -53
-15 -14 -8 -42 -14 -62 -15 -29 0 -41 -6 -54 -25 -9 -14 -33 -29 -55 -35 -30
-8 -40 -17 -45 -38 -4 -15 -18 -40 -31 -55 -24 -30 -27 -48 -13 -82 5 -13 3
-26 -7 -37 -14 -16 -13 -23 7 -72 12 -31 29 -61 37 -67 8 -7 21 -25 29 -41 8
-15 33 -37 57 -49 23 -12 74 -42 112 -67 39 -25 99 -58 135 -73 l64 -28 -39
-3 c-80 -6 -40 -40 66 -54 56 -8 90 -26 69 -39 -9 -6 -11 -4 -5 5 6 9 4 11 -4
5 -7 -4 -25 -11 -39 -16 -25 -8 -25 -9 6 -4 17 2 32 2 32 0 0 -3 -15 -11 -32
-19 -18 -8 -26 -15 -17 -15 9 -1 35 13 59 30 33 24 48 29 69 24 14 -4 41 -8
60 -9 25 -1 41 -11 67 -41 31 -36 34 -37 24 -12 -13 38 -14 37 16 37 14 0 37
-9 51 -20 35 -27 40 -18 8 14 -18 18 -37 26 -63 27 -29 0 -33 2 -17 9 11 4 32
6 46 3 19 -4 28 0 33 12 9 23 2 28 -35 27 -44 -1 -29 9 81 59 239 107 405 231
493 371 54 84 70 137 63 205 -3 32 -6 88 -5 125 1 146 -47 212 -131 181z
m-630 -913 c19 -12 -42 -12 -80 0 -21 7 -17 8 20 9 25 0 52 -4 60 -9z m5 -60
c3 -5 -1 -10 -9 -10 -9 0 -16 5 -16 10 0 6 4 10 9 10 6 0 13 -4 16 -10z"/>
<path d="M1150 7710 c-8 -5 -27 -10 -42 -10 -35 0 -60 -37 -68 -101 -5 -37 -2
-56 9 -73 59 -88 108 -156 135 -185 26 -29 28 -32 8 -21 -13 6 -30 9 -37 6 -8
-3 -92 4 -187 15 -180 20 -223 19 -323 -8 -69 -19 -88 -31 -81 -50 3 -8 0 -23
-6 -33 -10 -16 -9 -22 4 -32 10 -7 21 -22 25 -34 4 -12 46 -53 93 -92 47 -39
92 -77 100 -84 50 -42 77 -52 159 -56 58 -3 79 -7 67 -14 -31 -18 -18 -53 37
-100 28 -25 67 -53 86 -62 18 -10 74 -59 123 -108 79 -81 93 -91 131 -95 61
-7 142 37 184 100 36 54 58 140 48 196 -7 42 -55 184 -73 218 -7 13 -10 34 -6
48 5 21 3 25 -15 25 -12 0 -21 5 -21 11 0 7 9 9 23 5 12 -4 126 -9 252 -13
191 -5 249 -3 339 12 179 28 291 68 354 128 63 61 36 88 -113 112 -104 18
-222 45 -290 69 -142 49 -222 58 -274 31 -29 -14 -29 -14 -35 19 -4 18 -17 43
-30 55 -24 23 -116 54 -208 71 -26 5 -56 13 -67 19 -11 6 -32 11 -46 11 -14 0
-35 4 -45 10 -25 14 -192 22 -210 10z m230 -465 c17 -9 30 -20 30 -25 0 -5
-16 0 -35 11 -51 31 -47 41 5 14z"/>
<path d="M3400 6417 c-14 -12 -40 -42 -58 -67 -30 -41 -103 -108 -167 -153
-14 -11 -39 -37 -56 -59 -24 -34 -29 -51 -29 -96 l0 -55 -20 25 c-10 14 -33
31 -49 38 -27 11 -35 9 -65 -10 -60 -37 -109 -123 -140 -245 -7 -27 -17 -59
-23 -70 -7 -13 -9 -52 -6 -105 5 -74 10 -90 34 -121 35 -44 148 -116 242 -155
38 -16 62 -31 56 -35 -17 -10 -3 -26 37 -39 34 -12 35 -13 18 -31 -9 -10 -23
-19 -30 -19 -7 0 -15 -4 -18 -9 -12 -19 33 2 55 25 26 27 46 30 73 9 16 -12
17 -17 6 -30 -8 -9 -8 -15 -2 -15 6 0 14 9 17 20 3 11 12 20 18 20 27 -1 91
-30 99 -44 5 -9 14 -16 20 -16 6 0 4 8 -5 18 -24 27 -21 38 4 16 22 -19 22
-19 10 4 -7 14 -21 22 -37 22 -14 0 -23 4 -19 10 4 6 10 8 14 5 13 -7 45 21
37 33 -4 7 -16 12 -27 12 -28 0 -23 12 20 42 52 37 387 354 484 459 115 123
194 232 243 334 55 117 60 133 38 142 -17 6 -95 -30 -189 -88 -27 -17 -90 -49
-140 -70 -155 -68 -217 -103 -266 -149 l-47 -45 1 145 c1 127 -2 157 -26 244
-14 54 -32 104 -38 112 -16 20 -40 17 -69 -9z"/>
<path d="M1225 6226 c-66 -6 -126 -15 -134 -20 -8 -5 -32 -14 -55 -21 -35 -10
-41 -16 -44 -43 -5 -48 60 -137 153 -210 37 -29 22 -28 -72 8 -88 33 -219 65
-308 75 -56 7 -64 5 -100 -20 -22 -15 -50 -31 -62 -36 -14 -5 -23 -17 -23 -30
0 -11 -6 -33 -14 -47 -49 -96 -51 -158 -7 -220 22 -31 93 -61 145 -62 18 -1
18 -3 -6 -16 -15 -8 -31 -26 -34 -41 -8 -30 19 -125 41 -143 8 -7 15 -17 15
-22 0 -5 10 -30 21 -55 12 -26 25 -71 29 -100 16 -123 78 -139 242 -61 98 47
142 82 221 180 35 43 167 307 167 334 0 7 8 10 20 7 11 -3 20 -8 20 -12 0 -4
7 -16 16 -27 14 -18 14 -18 3 6 -6 14 -21 33 -33 43 -21 17 -21 17 7 7 15 -5
39 -22 53 -37 l26 -28 -21 28 c-14 20 -18 37 -14 58 5 25 2 29 -16 29 -11 0
-21 4 -21 9 0 5 41 9 92 10 51 1 101 4 113 6 11 3 106 14 210 25 281 30 483
74 587 126 64 32 138 90 138 109 0 20 -53 33 -185 45 -66 6 -169 20 -230 31
-224 41 -307 50 -359 39 -27 -6 -56 -15 -63 -22 -10 -8 -13 -5 -13 15 0 32
-38 60 -101 75 -70 17 -268 21 -404 8z"/>
<path d="M5220 6205 c-25 -13 -47 -23 -50 -23 -23 1 -33 -9 -59 -59 -35 -71
-71 -231 -71 -318 0 -36 -4 -65 -8 -65 -5 0 -17 28 -27 62 -43 145 -170 357
-213 358 -9 1 -35 7 -57 15 -34 12 -46 13 -80 1 -22 -8 -60 -20 -85 -27 -49
-15 -109 -67 -128 -113 -15 -35 -2 -84 36 -135 l25 -33 -24 8 c-69 22 -100 -3
-165 -133 -26 -53 -66 -115 -89 -139 -23 -23 -48 -57 -55 -74 -11 -28 -11 -34
7 -58 25 -33 95 -75 193 -115 70 -28 84 -30 205 -31 118 0 142 3 267 36 75 20
146 41 157 47 25 14 26 10 6 -32 -8 -18 -10 -24 -3 -13 19 27 51 63 43 48 -4
-7 -2 -18 3 -25 5 -7 10 -27 10 -46 1 -45 12 -54 12 -9 0 50 13 56 27 11 l12
-38 -2 37 c-1 45 7 55 30 37 11 -9 10 -3 -6 19 -13 18 -22 35 -20 37 2 2 38
-3 79 -10 41 -8 154 -19 250 -26 152 -10 190 -9 294 5 140 20 189 35 276 86
166 97 183 128 110 194 -22 20 -46 36 -53 36 -22 0 -110 66 -189 143 -109 105
-162 126 -229 92 l-29 -16 20 33 c30 50 26 106 -10 150 -16 19 -42 39 -57 43
-16 3 -35 12 -43 20 -8 7 -60 18 -115 24 -55 6 -111 13 -125 15 -14 2 -45 -6
-70 -19z"/>
<path d="M9435 6104 c-103 -53 -262 -181 -412 -331 -162 -162 -162 -162 -185
-144 -35 27 -273 154 -357 191 -41 18 -93 35 -115 38 -35 4 -39 3 -32 -13 6
-17 5 -17 -16 -1 -52 37 -151 82 -278 126 -74 26 -179 66 -233 89 -53 23 -112
44 -130 47 -32 5 -32 5 23 -46 76 -71 157 -131 307 -226 136 -86 506 -296 635
-360 74 -36 89 -54 47 -54 -28 0 -23 -29 6 -36 28 -7 32 -19 9 -28 -8 -3 -12
-2 -9 4 3 6 2 10 -3 10 -4 0 -16 -17 -26 -37 l-18 -38 24 23 c27 24 43 29 33
10 -4 -7 0 -5 8 5 8 9 22 17 31 17 9 0 16 -8 16 -17 0 -15 2 -16 10 -3 8 12
10 12 11 -5 0 -11 3 -14 6 -7 3 7 -1 20 -8 28 -11 13 -10 15 2 13 7 -2 25 3
38 10 22 12 26 11 48 -18 13 -17 31 -31 39 -31 10 0 4 10 -15 26 -36 30 -38
40 -11 49 22 7 27 31 8 37 -6 2 34 16 90 31 143 37 240 80 312 138 123 99 231
259 175 259 -9 0 -32 -7 -53 -16 l-37 -15 39 40 c38 38 39 43 41 111 1 39 7
76 13 82 14 14 16 44 4 52 -5 3 -21 -2 -37 -10z"/>
<path d="M7233 6081 c-70 -43 -170 -151 -208 -224 -21 -39 -39 -73 -39 -74 -1
-1 -31 6 -67 17 -78 24 -117 25 -140 4 -16 -14 -19 -14 -39 6 -34 34 -151 84
-287 124 -67 20 -166 52 -220 72 -210 76 -233 84 -258 84 -14 0 -25 -4 -25 -9
0 -15 93 -123 140 -164 65 -56 263 -187 395 -262 66 -37 150 -85 188 -107 37
-22 115 -64 174 -94 95 -49 102 -54 72 -55 -19 -1 -38 -1 -43 0 -5 1 -3 -6 5
-16 20 -26 30 -32 45 -26 6 2 15 0 19 -6 4 -7 -5 -11 -23 -11 -18 0 -36 -9
-48 -22 -19 -23 -19 -23 2 -5 11 9 24 17 29 17 4 0 1 -8 -6 -17 -11 -15 -10
-14 9 1 12 11 22 14 22 8 0 -6 -10 -18 -22 -26 -12 -9 -19 -16 -16 -16 4 0 27
13 50 29 38 26 44 28 50 13 4 -9 7 -11 7 -5 1 21 49 10 62 -14 7 -13 16 -23
21 -23 5 0 2 10 -6 22 -22 31 -20 38 10 38 15 0 41 -13 61 -30 18 -16 41 -30
51 -30 10 1 1 9 -20 21 -21 11 -38 24 -38 29 0 5 20 12 45 16 50 7 63 18 46
38 -9 11 6 14 75 20 99 7 245 37 327 67 46 18 64 31 94 72 35 47 37 55 38 125
0 40 -3 76 -8 79 -4 3 -12 16 -17 29 -5 13 -26 32 -45 41 -30 14 -44 15 -88 6
-29 -6 -61 -15 -71 -19 -17 -7 -17 -4 4 24 22 29 22 32 7 56 -18 26 -32 37
-111 88 -27 18 -57 46 -68 64 -21 36 -58 64 -85 64 -10 0 -32 -9 -50 -19z"/>
<path d="M2601 5541 c-56 -109 -92 -275 -157 -721 -19 -135 -39 -249 -44 -254
-5 -5 -21 12 -39 40 -294 478 -465 703 -600 788 -84 53 -92 23 -30 -116 61
-141 123 -294 153 -382 43 -123 99 -238 133 -270 28 -27 30 -30 17 -55 -19
-35 -18 -47 10 -127 43 -126 100 -233 219 -414 19 -30 54 -72 77 -94 37 -34
44 -37 57 -23 21 20 42 118 44 200 2 76 13 88 23 25 10 -65 46 -171 65 -191
16 -17 18 -14 39 55 33 113 56 314 56 499 1 125 -2 170 -13 182 -11 13 -11 23
-1 49 8 21 15 142 20 338 5 168 11 343 15 390 3 47 2 99 -3 115 l-9 30 -32
-64z"/>
<path d="M3302 5210 c0 -14 2 -19 5 -12 2 6 2 18 0 25 -3 6 -5 1 -5 -13z"/>
<path d="M5218 5131 c-60 -38 -163 -151 -194 -213 -69 -136 -115 -282 -159
-502 -24 -122 -46 -242 -49 -268 -18 -143 -15 -135 -44 -141 -18 -4 -113 22
-287 78 -364 117 -520 148 -627 126 -30 -7 -64 -18 -74 -25 -17 -13 -17 -15
12 -42 17 -16 93 -62 169 -102 76 -40 191 -107 256 -147 157 -98 253 -146 303
-150 34 -2 41 -7 48 -30 9 -36 32 -60 98 -105 130 -88 407 -194 513 -195 l59
-1 -6 31 c-8 37 -63 128 -129 213 -27 35 -48 65 -45 67 2 2 35 -14 73 -37 98
-57 224 -98 301 -98 l62 0 22 43 c12 23 32 53 45 67 17 19 25 41 28 85 3 33
10 98 17 145 14 97 14 101 1 195 -13 101 -42 160 -93 186 -24 12 -53 19 -69
17 -16 -3 -29 -3 -29 -2 0 2 12 20 26 41 40 58 31 146 -34 338 -27 83 -55 184
-61 225 -24 155 -43 211 -76 223 -7 3 -33 -7 -57 -22z"/>
<path d="M6207 4952 c-12 -13 -20 -52 -27 -123 -6 -57 -15 -117 -20 -134 -5
-16 -19 -59 -30 -94 -31 -95 -37 -179 -15 -222 10 -18 24 -42 33 -52 14 -16
13 -16 -16 -6 -52 18 -96 -3 -115 -54 -29 -76 -22 -205 18 -331 8 -27 15 -61
15 -76 0 -15 7 -34 17 -41 9 -8 31 -37 49 -65 28 -44 38 -51 81 -61 58 -13
185 -2 256 23 26 9 51 14 54 10 3 -3 -15 -28 -40 -55 -45 -48 -63 -89 -33 -78
7 3 43 15 79 26 37 11 81 28 99 37 22 11 33 13 36 5 2 -7 10 -4 20 8 10 11 51
34 92 51 103 44 303 146 334 171 14 11 24 24 21 28 -2 5 15 14 38 20 23 7 112
49 197 93 85 45 236 123 334 175 240 124 248 134 77 88 -131 -35 -349 -119
-686 -263 -159 -68 -301 -124 -314 -125 -23 -2 -26 3 -39 73 -21 117 -119 444
-166 556 -71 167 -111 231 -215 337 -53 53 -101 97 -107 97 -6 0 -18 -8 -27
-18z"/>
<path d="M9585 4864 c-187 -98 -404 -281 -695 -585 -107 -112 -200 -206 -208
-207 -8 -2 -35 16 -61 41 -89 87 -407 359 -552 472 -139 109 -348 245 -377
245 -20 0 -1 -29 82 -118 40 -45 107 -123 149 -174 91 -113 140 -165 190 -203
27 -20 34 -31 26 -36 -31 -19 42 -105 224 -267 210 -186 273 -220 325 -172 12
11 25 20 31 20 5 0 11 5 13 12 3 7 13 2 26 -12 24 -25 54 -33 120 -31 35 1 56
11 115 55 113 84 277 268 325 362 23 47 19 64 -16 64 -25 0 -24 1 14 30 47 34
105 114 160 220 21 41 69 122 106 179 63 96 79 131 60 131 -4 0 -30 -12 -57
-26z"/>
<path d="M867 4559 c-25 -15 -48 -64 -63 -137 -8 -36 -34 -106 -58 -156 -88
-179 -97 -228 -50 -271 l27 -25 -31 0 c-150 0 -233 -191 -163 -373 6 -16 11
-42 11 -58 0 -16 4 -29 8 -29 4 0 27 -18 50 -40 35 -34 47 -40 85 -40 41 0
177 34 252 62 17 6 65 28 108 49 42 21 77 34 77 30 0 -5 -20 -31 -45 -58 -69
-73 -137 -189 -142 -245 l-5 -46 48 -21 c27 -12 55 -28 64 -35 8 -7 51 -16 95
-20 44 -3 116 -10 160 -15 89 -9 187 0 284 27 68 18 108 52 117 102 l6 27 36
-19 c53 -28 159 -19 357 31 88 22 185 43 215 46 110 13 225 37 244 50 13 10
17 21 12 39 -8 32 -124 128 -195 161 -86 42 -281 93 -430 115 -224 33 -342 49
-410 55 -35 4 -70 13 -78 21 -8 8 -25 14 -38 14 -20 0 -24 6 -30 53 -7 49 -17
87 -82 292 -32 101 -118 248 -177 303 -46 43 -192 122 -223 122 -10 0 -26 -5
-36 -11z"/>
<path d="M3382 4013 c-16 -6 -84 -108 -102 -152 -29 -72 -109 -198 -193 -304
-41 -52 -107 -184 -107 -216 0 -15 7 -36 15 -47 20 -26 19 -33 -5 -27 -11 3
-41 2 -67 -2 -41 -6 -56 -15 -100 -61 -29 -31 -59 -74 -69 -102 -10 -26 -23
-54 -29 -62 -7 -8 -19 -62 -29 -120 -9 -58 -21 -123 -26 -146 -7 -33 -5 -48
11 -82 18 -36 25 -57 28 -84 1 -3 28 -9 62 -13 l60 -7 -22 -24 c-13 -13 -23
-34 -24 -45 -3 -31 26 -21 229 81 121 61 182 87 187 79 11 -19 99 16 188 76
44 30 83 55 86 55 16 0 0 -20 -31 -41 -25 -17 -42 -41 -59 -83 -13 -33 -18
-53 -11 -45 7 8 20 35 30 60 12 34 25 50 46 59 16 7 32 21 35 31 7 21 17 20
84 -7 53 -22 51 -15 -4 11 -27 13 -43 24 -35 25 8 0 26 9 40 20 14 11 39 20
55 21 30 2 30 2 -5 9 -19 4 -27 8 -17 9 16 1 16 3 5 16 -38 42 -38 42 -5 72
55 51 228 254 263 309 40 63 43 90 10 105 -31 15 -62 -2 -173 -94 -131 -107
-128 -105 -121 -86 4 9 14 83 24 163 14 124 15 166 6 269 -14 147 -28 197 -75
268 -71 106 -106 132 -155 112z m193 -1153 c-3 -5 -16 -15 -28 -21 -22 -12
-22 -12 -3 10 19 21 43 30 31 11z"/>
<path d="M5329 3202 c-25 -15 -65 -44 -90 -64 -49 -42 -130 -92 -205 -128 -66
-32 -159 -126 -169 -170 l-8 -35 -13 32 c-15 35 -40 47 -77 38 -24 -6 -28 -1
-66 81 -83 176 -123 195 -175 84 -9 -20 -45 -66 -81 -103 -58 -61 -65 -72 -65
-108 0 -22 5 -49 10 -60 8 -14 0 -11 -34 13 -40 27 -49 30 -70 20 -45 -20 -62
-74 -60 -192 2 -169 37 -236 174 -329 67 -46 170 -101 189 -101 11 0 11 -3 0
-16 -11 -14 -10 -19 10 -35 13 -11 30 -19 39 -19 12 0 10 -6 -8 -25 -13 -14
-29 -25 -37 -25 -7 0 -13 -4 -13 -10 0 -15 10 -12 46 15 40 31 48 31 76 3 14
-14 23 -18 26 -10 8 24 22 11 17 -15 -5 -25 -5 -26 4 -6 12 26 30 23 74 -14
16 -13 34 -23 40 -23 8 0 7 3 -1 9 -8 4 -13 11 -13 15 4 28 -2 36 -26 37 -21
1 -23 2 -8 6 22 6 45 22 45 32 0 4 -13 12 -29 18 l-30 11 41 43 c22 24 66 78
96 119 30 41 87 118 126 170 194 261 294 467 337 694 6 34 6 53 -2 62 -15 18
-17 18 -70 -14z m-485 -1168 c5 -14 4 -15 -9 -4 -17 14 -19 20 -6 20 5 0 12
-7 15 -16z"/>
<path d="M6862 3114 c-23 -12 -42 -35 -63 -75 -16 -32 -29 -65 -29 -74 0 -9
-9 -15 -25 -15 -17 0 -29 -8 -37 -25 -9 -19 -24 -27 -79 -39 -37 -9 -98 -27
-136 -40 -37 -13 -126 -43 -198 -66 -216 -69 -402 -179 -486 -286 -147 -188
-134 -227 78 -239 46 -3 127 -17 180 -31 195 -51 218 -56 280 -52 52 3 68 9
91 32 l29 27 6 -42 c11 -86 73 -128 202 -138 65 -6 95 -2 165 16 47 13 110 29
141 36 45 10 67 23 117 68 59 53 62 58 62 101 0 50 -59 226 -89 268 -10 14
-21 35 -25 47 -4 12 -13 27 -21 33 -8 7 -15 21 -15 32 0 17 6 15 43 -17 101
-87 238 -196 292 -234 43 -30 68 -41 96 -41 36 0 37 1 43 43 11 78 -35 163
-126 232 -33 25 -53 45 -44 45 9 0 16 5 16 10 0 16 -33 77 -74 140 -20 30 -52
87 -70 125 -42 87 -73 119 -144 145 -80 30 -140 35 -180 14z"/>
<path d="M360 3100 c-14 -26 -7 -149 11 -181 17 -33 48 -190 54 -279 8 -110
33 -258 50 -290 17 -32 54 -66 83 -77 23 -9 22 -9 -15 -33 -20 -14 -48 -41
-61 -60 -21 -31 -23 -43 -19 -106 3 -40 12 -85 20 -100 8 -16 17 -43 20 -60 6
-30 43 -91 113 -189 20 -27 41 -62 46 -77 5 -15 19 -30 31 -34 12 -3 43 -19
70 -35 26 -16 53 -29 61 -29 54 0 216 149 296 273 64 98 70 92 45 -48 -19
-103 -19 -213 0 -294 19 -80 25 -87 77 -95 23 -4 57 -14 75 -23 28 -13 39 -14
61 -3 15 7 59 18 97 26 111 21 186 42 203 56 10 7 38 23 63 36 25 13 66 43 90
68 42 42 44 48 44 102 0 31 -4 68 -8 80 -8 22 -7 23 11 13 33 -18 99 -13 145
10 48 25 99 62 173 128 117 104 204 167 261 190 42 17 143 112 143 135 0 50
-194 157 -317 175 -122 18 -278 13 -435 -14 -286 -50 -364 -65 -412 -80 -65
-20 -69 -19 -62 9 5 21 3 23 -16 18 -18 -4 -20 -2 -15 17 5 21 4 21 -18 -3
-13 -14 -26 -26 -28 -26 -3 0 -21 28 -42 63 -35 59 -68 105 -248 350 -83 112
-224 253 -313 312 -60 40 -185 83 -265 92 -52 5 -58 4 -69 -17z"/>
<path d="M8805 2890 c-115 -8 -177 -18 -185 -31 -3 -4 -50 -27 -105 -52 -177
-79 -479 -232 -590 -298 -99 -58 -235 -168 -235 -190 0 -18 45 -8 208 45 92
30 232 73 312 96 148 42 241 79 272 107 14 13 20 13 33 3 15 -13 89 -10 128 5
16 7 17 2 11 -71 -7 -86 13 -230 47 -339 20 -67 124 -231 166 -264 44 -35 83
-13 132 73 16 29 53 74 82 102 149 139 169 176 134 245 l-16 29 38 -20 c56
-30 111 -27 151 9 17 17 32 37 32 45 0 8 6 21 14 29 9 9 18 54 24 122 9 108 9
109 -20 171 -36 77 -60 92 -222 146 -135 44 -220 52 -411 38z"/>
<path d="M5542 1925 c-56 -94 -175 -488 -268 -887 -10 -43 -23 -78 -29 -78 -6
0 -27 35 -45 78 -72 164 -251 522 -317 631 -64 108 -177 241 -204 241 -18 0
-5 -70 40 -205 22 -66 58 -190 80 -275 47 -183 63 -229 97 -288 19 -32 23 -47
15 -55 -31 -31 14 -210 100 -395 22 -48 49 -108 59 -133 10 -26 37 -72 60
-102 36 -47 45 -54 59 -45 17 11 41 72 59 153 l9 40 7 -40 c11 -59 39 -138 52
-142 16 -5 60 117 93 262 58 254 78 422 54 446 -9 9 -9 18 2 39 17 34 40 158
60 330 9 74 25 187 35 250 27 165 34 230 23 230 -4 0 -23 -25 -41 -55z"/>
<path d="M4017 1848 c-27 -29 -57 -69 -67 -89 -22 -42 -117 -163 -181 -229
-136 -141 -185 -225 -175 -297 l6 -43 -30 15 c-47 24 -95 10 -153 -44 -27 -25
-58 -64 -69 -86 -11 -22 -27 -47 -35 -56 -7 -9 -32 -70 -54 -135 -22 -66 -46
-132 -54 -149 -7 -16 -11 -34 -7 -39 3 -6 8 -39 11 -75 l6 -65 50 -20 c62 -24
61 -24 47 -38 -7 -7 -12 -16 -12 -20 0 -20 129 1 260 42 39 12 66 16 68 10 9
-25 115 1 220 54 28 14 52 22 52 16 0 -5 -13 -16 -30 -25 -28 -14 -114 -125
-97 -125 2 0 21 25 41 55 20 30 43 55 51 55 8 0 23 9 32 19 18 22 38 16 80
-22 13 -11 25 -18 28 -15 3 3 -10 16 -30 29 -19 13 -35 28 -35 33 0 5 3 7 6 3
4 -3 19 0 34 8 15 8 38 12 51 9 20 -4 21 -4 7 5 -10 7 -14 19 -11 32 4 14 0
26 -10 34 -15 11 -7 20 61 77 116 98 394 375 442 441 30 41 44 70 48 102 3 35
1 45 -10 45 -17 0 -128 -66 -218 -130 -87 -61 -220 -144 -225 -139 -2 3 9 51
25 108 37 131 64 343 57 437 -5 74 -52 210 -83 245 -26 29 -44 23 -97 -33z
m-27 -1218 c-24 -15 -36 -11 -14 4 10 8 21 12 24 10 2 -3 -2 -9 -10 -14z"/>
<path d="M8988 1687 c-31 -18 -83 -48 -116 -68 -55 -34 -241 -119 -260 -119
-12 0 -140 -68 -175 -92 -35 -25 -57 -68 -57 -110 l0 -33 -30 32 c-61 65 -159
65 -258 -1 -25 -17 -57 -37 -71 -45 -14 -8 -29 -18 -32 -24 -15 -22 -117 -143
-155 -184 -36 -38 -42 -52 -48 -103 -4 -33 -11 -62 -16 -65 -4 -3 -7 -23 -7
-44 2 -34 8 -44 44 -70 56 -41 192 -95 299 -121 120 -28 122 -29 104 -40 -25
-16 2 -30 89 -47 69 -14 78 -18 63 -28 -9 -7 -26 -15 -37 -18 -17 -4 -16 -5 5
-6 l25 -2 -24 -10 c-13 -5 -21 -12 -18 -15 7 -7 46 13 74 39 17 15 29 18 50
12 15 -4 41 -8 58 -8 30 -2 63 -26 83 -62 l12 -20 -3 20 c-1 11 -6 26 -10 32
-14 23 57 16 78 -7 10 -11 22 -20 27 -20 6 0 -3 14 -19 30 -20 22 -37 30 -62
30 -19 0 -31 3 -28 7 4 3 21 6 39 5 34 -1 61 14 52 29 -3 5 -18 9 -34 9 -16 0
-32 5 -35 10 -3 6 -1 10 6 10 21 0 101 71 252 224 150 153 217 239 278 356 30
59 33 73 33 150 -2 199 -17 364 -35 386 -20 24 -80 16 -141 -19z m-483 -1147
c3 -5 -1 -10 -9 -10 -9 0 -16 5 -16 10 0 6 4 10 9 10 6 0 13 -4 16 -10z"/>
<path d="M6823 1529 c-48 -11 -91 -57 -103 -112 l-7 -32 -11 25 c-5 14 -22 36
-37 50 -29 27 -33 28 -300 21 -60 -2 -120 1 -132 6 -12 4 -45 6 -73 5 -41 -3
-54 -9 -67 -29 -15 -22 -15 -33 -4 -86 19 -98 51 -188 86 -242 55 -86 153
-187 248 -258 51 -37 115 -85 142 -106 28 -20 77 -53 110 -71 38 -22 54 -36
43 -38 -9 -2 -24 -14 -32 -27 -14 -21 -14 -24 -1 -19 20 8 19 -2 -6 -39 l-21
-32 26 27 c14 16 32 28 41 28 13 0 10 -8 -11 -37 -19 -27 -12 -22 24 16 l51
55 4 -50 3 -49 2 52 c2 50 4 54 36 67 18 8 37 19 41 25 4 7 26 10 58 7 l52 -5
-47 10 c-42 10 -51 9 -83 -11 -21 -13 -33 -17 -30 -8 3 7 25 26 49 41 55 34
126 111 126 135 0 10 69 81 164 169 94 87 176 172 193 200 30 48 30 50 14 72
-17 22 -19 22 -55 7 -20 -8 -50 -25 -67 -36 -26 -19 -29 -19 -29 -4 0 29 -62
143 -81 149 -10 4 -36 21 -58 38 -52 43 -100 70 -136 78 -16 3 -41 9 -55 12
-14 3 -44 1 -67 -4z"/>
<path d="M1745 1243 c-49 -6 -119 -15 -154 -19 -42 -5 -77 -15 -99 -31 -19
-12 -41 -23 -48 -23 -18 0 -18 -24 0 -58 19 -36 127 -138 199 -186 31 -22 56
-41 54 -43 -2 -1 -44 11 -93 28 -104 35 -305 79 -364 79 -35 0 -47 -6 -79 -41
l-39 -40 3 -85 c4 -99 25 -151 82 -205 43 -41 88 -59 146 -59 38 0 39 -1 24
-18 -37 -41 -17 -84 109 -229 35 -39 74 -93 88 -120 35 -70 78 -107 121 -106
34 1 150 58 189 91 26 24 64 92 85 154 15 41 42 246 44 325 0 16 33 -1 46 -25
6 -9 11 -13 11 -9 0 4 -7 18 -16 31 -10 16 -12 26 -5 31 19 11 12 25 -16 37
-25 10 -18 12 67 19 91 8 141 15 420 60 139 22 307 67 388 104 55 25 162 118
162 141 0 28 -59 44 -202 54 -142 11 -185 16 -348 47 -121 23 -282 23 -307 1
-26 -23 -30 -23 -37 6 -7 28 -60 64 -114 78 -70 18 -225 23 -317 11z"/>
<path d="M2020 643 c0 -5 10 -18 23 -29 l22 -19 -20 25 c-11 14 -21 27 -22 29
-2 2 -3 0 -3 -6z"/>
</g>
</svg>
